<?xml version="1.0" standalone="no"?>
<!DOCTYPE svg PUBLIC "-//W3C//DTD SVG 20010904//EN" "http://www.w3.org/TR/2001/REC-SVG-20010904/DTD/svg10.dtd">
<svg version="1.0" xmlns="http://www.w3.org/2000/svg" width="192.000000pt" height="192.000000pt"
  viewBox="0 0 192.000000 192.000000" preserveAspectRatio="xMidYMid meet">
  <metadata>
    Created by potrace 1.14, written by Peter Selinger 2001-2017
  </metadata>
  <g transform="translate(0.000000,192.000000) scale(0.100000,-0.100000)" fill="#000000" stroke="none">
    <path d="M0 960 l0 -960 960 0 960 0 0 960 0 960 -960 0 -960 0 0 -960z m805
665 c33 -9 83 -28 110 -43 44 -24 57 -27 105 -21 99 11 196 -8 292 -58 85 -44
164 -121 195 -190 18 -38 34 -57 56 -68 65 -29 124 -106 112 -145 -13 -41 -77
-54 -278 -58 l-189 -4 -16 -30 c-42 -75 -100 -118 -162 -118 l-30 0 0 70 c0
81 3 79 -99 54 -165 -41 -273 -134 -336 -290 l-24 -59 42 -20 c81 -38 151
-135 175 -242 6 -24 6 -43 1 -43 -5 0 -43 14 -86 31 -118 47 -154 47 -240 5
-40 -19 -100 -53 -133 -76 l-60 -41 0 30 c0 57 30 186 55 238 14 28 41 65 59
81 l34 29 5 169 c3 130 9 188 26 249 33 121 85 219 153 289 45 46 57 65 50 76
-9 15 -85 80 -132 113 -24 17 -24 17 -5 37 44 44 214 62 320 35z" />
  </g>
</svg>