<svg viewBox="0 0 1000 1000">
  <path
    d="M914.9,804.8L804.8,915L672.3,782.6L526.8,928l35.2,35.2l110.3-110.2l132.5,132.5L950.2,840L914.9,804.8z M775.1,692.2l43.3-39c-42.4-30.6-92.5-51.2-147.1-57.9C759.5,538.8,818,440.2,818,327.8C818,152.3,675.7,10,500.1,10S182.3,152.3,182.3,327.8c0,112.4,58.5,211,146.6,267.5c-157.2,19.2-279,152.9-279,315.2V937c0,18.1,1.9,35.7,4.7,53h54.2c-3.9-17.8-6-36.2-6-55.1v-22.3c0-147.4,125.5-266.9,280.4-266.9h233.7C675.7,645.7,730.1,662.9,775.1,692.2z M235.3,327.8C235.3,181.6,353.8,63,500.1,63S765,181.6,765,327.8S646.4,592.7,500.1,592.7S235.3,474.1,235.3,327.8z" />
</svg>