<svg class="output_svg_load" width="192" height="192" viewBox="0 0 192 192">
  <g transform="translate(0,192) scale(0.1,-0.1)" fill="#26ade3" stroke="none">
    <path
      d="M570 1654 c-76 -16 -114 -41 -118 -77 -3 -21 8 -34 57 -74 78 -63 82 -75 37 -119 -116 -112 -186 -336 -186 -592 l0 -107 -43 -52 c-50 -62 -74 -120 -92 -227 -24 -149 1 -170 113 -98 68 43 172 92 195 92 10 0 66 -16 125 -35 100 -33 108 -34 119 -18 42 57 -41 233 -143 304 -42 28 -45 34 -40 62 9 44 61 121 115 169 56 50 157 99 217 106 l44 5 0 -50 c0 -37 5 -55 20 -68 43 -39 161 11 209 88 12 19 31 37 44 41 12 3 85 6 163 6 153 0 231 15 272 53 48 45 13 137 -74 192 -32 20 -54 44 -71 79 -36 71 -131 159 -217 201 -82 40 -216 67 -293 58 -41 -4 -59 0 -100 20 -105 54 -230 68 -353 41z m229 -25 c24 -5 69 -22 100 -37 49 -24 69 -27 161 -28 129 -2 208 -25 300 -87 73 -49 148 -134 157 -178 4 -23 17 -36 54 -55 58 -29 111 -96 107 -134 -2 -17 -14 -30 -38 -42 -47 -23 -190 -39 -323 -37 l-110 1 -15 -28 c-33 -66 -87 -107 -157 -118 l-40 -7 3 76 c4 85 9 82 -87 60 -155 -37 -282 -140 -339 -276 l-30 -72 50 -25 c68 -34 132 -117 159 -204 12 -37 19 -72 17 -77 -1 -4 -41 6 -88 25 -128 50 -154 52 -234 15 -37 -17 -96 -51 -132 -76 -36 -25 -67 -45 -69 -45 -16 0 6 157 32 230 20 55 70 128 93 135 16 5 18 27 23 188 4 159 8 193 32 272 32 109 92 213 156 274 46 43 47 45 32 68 -9 13 -45 45 -80 69 -34 25 -63 52 -63 60 0 46 210 81 329 53z" />
  </g>
</svg>