<svg viewBox="0 0 1000 1000">
  <g>
    <path
      d="M790.2,732.3c-14.2-13.4-36.4-12.8-49.9,1.4c-63.2,66.8-148.6,103.6-240.5,103.6c-159.8,0-293.5-113.8-324.3-264.6h59c21.8,0,34.5-24.5,21.9-42.4l-98.8-139.9c-10.7-15.2-33.2-15.2-43.9,0L15,530.4c-12.6,17.8,0.1,42.4,21.9,42.4h67.3C136,762.7,301,908,499.8,908c111.5,0,215.1-44.6,291.8-125.7C805,768.1,804.4,745.7,790.2,732.3z"
      stroke="#fff" stroke-width="20" />
    <path
      d="M209.7,267.7c14.2,13.4,36.4,12.8,49.9-1.4c63.2-66.8,148.6-103.6,240.5-103.6c159.8,0,293.5,113.8,324.3,264.6h-59c-21.8,0-34.5,24.5-21.9,42.4l98.9,139.9c10.7,15.2,33.2,15.2,43.9,0L985,469.6c12.6-17.8-0.1-42.4-22-42.4h-67.3C863.9,237.3,698.9,92,500.1,92C388.6,92,285,136.6,208.3,217.8C195,231.9,195.6,254.3,209.7,267.7z"
      stroke="#fff" stroke-width="20" />
    <path
      d="M643.7,553.5c0,36.1-29.2,65.3-65.3,65.3H414.2c-36.1,0-65.3-29.2-65.3-65.3V452.8c0-36.1,29.2-65.3,65.3-65.3h164.2c36.1,0,65.3,29.2,65.3,65.3V553.5z"
      stroke="#fff" stroke-width="20" />
  </g>
</svg>