<svg width="60" height="60" viewBox="0 0 60 60" fill="none" xmlns="http://www.w3.org/2000/svg">
<path d="M30 3.75C15.5039 3.75 3.75 15.5039 3.75 30C3.75 44.4961 15.5039 56.25 30 56.25C44.4961 56.25 56.25 44.4961 56.25 30C56.25 15.5039 44.4961 3.75 30 3.75ZM28.125 17.3438C28.125 17.0859 28.3359 16.875 28.5938 16.875H31.4062C31.6641 16.875 31.875 17.0859 31.875 17.3438V33.2812C31.875 33.5391 31.6641 33.75 31.4062 33.75H28.5938C28.3359 33.75 28.125 33.5391 28.125 33.2812V17.3438ZM30 43.125C29.264 43.11 28.5633 42.8071 28.0481 42.2812C27.5329 41.7554 27.2443 41.0486 27.2443 40.3125C27.2443 39.5764 27.5329 38.8696 28.0481 38.3438C28.5633 37.8179 29.264 37.515 30 37.5C30.736 37.515 31.4368 37.8179 31.9519 38.3438C32.4671 38.8696 32.7557 39.5764 32.7557 40.3125C32.7557 41.0486 32.4671 41.7554 31.9519 42.2812C31.4368 42.8071 30.736 43.11 30 43.125Z" fill="#7C2F70"/>
</svg>
