<svg viewBox="0 0 36.38 36.38">
	<path
		d="M 24.773 11.062 L 27.554 9.4 C 27.534 9.121 27.507 8.847 27.476 8.581 C 26.862 3.148 24.575 0.465 24.575 0.465 C 19.313 3.962 16.958 10.689 16.958 10.689 L 17.728 13.271 L 16.302 12.625 C 13.837 19.704 16.464 27.505 16.464 27.505 C 16.671 27.814 16.896 28.03 17.126 28.185 C 20.171 14.677 22.12 9.804 22.12 9.804 C 21.432 11.558 19.612 21.747 18.456 28.47 C 19.028 28.388 19.456 28.107 19.456 28.107 C 28.013 18.716 27.255 10.896 27.255 10.896 C 26.657 10.552 24.773 11.062 24.773 11.062 Z"
		transform="matrix(0.97437, 0.224951, -0.224951, 0.97437, 3.80297, -4.443254)" />
	<path
		d="M 13.187 26.667 C 12.753 28.587 11.492 33.048 11.015 35.327 L 12.177 33.981 C 12.177 33.981 13.482 30.047 14.517 26.952 C 14.115 27.011 13.642 26.968 13.187 26.667 Z"
		transform="matrix(0.97437, 0.224951, -0.224951, 0.97437, 7.299997, -2.077274)" />
	<rect x="5.934" y="10.508" width="8" height="0.1" stroke="#000" />
	<rect x="3.426" y="0.693" width="8" height="0.1" stroke="#000" transform="matrix(0, 1, -1, 0, 10.607194, 3.123876)" />
</svg>