<svg viewBox="0 0 343.617 343.617">
	<path d="M330.667,304.188h-9.695v-46.359c0-3.59-2.91-6.5-6.5-6.5h-25.934L262.876,36.82C260.365,15.829,242.529,0,221.388,0
		h-99.16C101.087,0,83.251,15.829,80.74,36.82L55.078,251.329H29.144c-3.59,0-6.5,2.91-6.5,6.5v46.359h-9.695
		c-3.59,0-6.5,2.91-6.5,6.5v26.429c0,3.59,2.91,6.5,6.5,6.5h317.718c3.59,0,6.5-2.91,6.5-6.5v-26.429
		C337.167,307.098,334.257,304.188,330.667,304.188z M93.648,38.364C95.378,23.904,107.665,13,122.229,13h99.16
		c14.563,0,26.851,10.904,28.58,25.364l25.478,212.964H68.171L93.648,38.364z M35.644,264.329h272.329v39.859H35.644V264.329z
		 M324.167,330.617H19.449v-13.429h304.718V330.617z" />
	<path
		d="M262.825,217.845l-1.303-10.893c-0.427-3.564-3.66-6.107-7.226-5.682c-3.564,0.426-6.108,3.662-5.682,7.226l1.303,10.893
		c0.395,3.302,3.201,5.729,6.446,5.729c0.257,0,0.518-0.015,0.78-0.046C260.707,224.645,263.251,221.409,262.825,217.845z" />
	<path d="M252.769,188.508c3.564-0.427,6.108-3.662,5.682-7.226l-12.135-101.44c-0.427-3.565-3.667-6.107-7.226-5.682
		c-3.564,0.427-6.108,3.662-5.682,7.226l12.135,101.44c0.395,3.302,3.201,5.729,6.446,5.729
		C252.246,188.554,252.506,188.539,252.769,188.508z" />
	<path d="M237.719,62.7c3.564-0.427,6.108-3.662,5.682-7.227l-2.232-18.653c-0.427-3.565-3.667-6.11-7.227-5.682
		c-3.564,0.427-6.108,3.662-5.682,7.227l2.232,18.653c0.395,3.303,3.201,5.729,6.446,5.729
		C237.196,62.747,237.457,62.731,237.719,62.7z" />
</svg>